# xmcd
#
# Track frame offsets:
#	150
#	12855
#	32915
#	46932
#	67602
#	83592
#	96387
#	112787
#	127245
#	139245
#	154047
#	163320
#	177947
#	193520
#	211057
#	230992
#	251385
#	262660
#
# Disc length: 3715 seconds
#
# Revision: 0
# Processed by: cddbd v1.5.1PL2 Copyright (c) Steve Scherf et al.
# Submitted via: dBpowerAMP V4.0
#
DISCID=eb0e8112
DTITLE=Vadim Piankov - Vadim Piankov chante Jacques Brel
DYEAR=1998
DGENRE=Chanson
TTITLE0=Amsterdam
TTITLE1=La cathédrale
TTITLE2=L'ivrogne
TTITLE3=Fernand
TTITLE4=La foire
TTITLE5=Pourquoi faut-il que les hommes s'ennuient ?
TTITLE6=Ne me quitte pas
TTITLE7=Mon père disait
TTITLE8=Madeleine
TTITLE9=Bruxelles
TTITLE10=Quand on n'a que l'amour
TTITLE11=Le plat pays
TTITLE12=Sur la place
TTITLE13=Il neige sur Liège
TTITLE14=Les vieux
TTITLE15=Orly
TTITLE16=La quête
TTITLE17=Jojo
EXTD=
EXTT0=
EXTT1=
EXTT2=
EXTT3=
EXTT4=
EXTT5=
EXTT6=
EXTT7=
EXTT8=
EXTT9=
EXTT10=
EXTT11=
EXTT12=
EXTT13=
EXTT14=
EXTT15=
EXTT16=
EXTT17=
PLAYORDER=
